# WaveFront *.obj file (generated by Autodesk ATF)

mtllib clockstand.mtl

g Твердое тело1

v -20.000000 0.000000 -56.999998
v -20.000000 0.000000 -20.629606
v -20.000000 0.000000 -9.629607
v -20.000000 0.000000 -3.000000
v -20.000000 8.000000 -56.999998
v -20.000000 8.000000 -20.629606
v -20.000000 8.000000 -9.629607
v -20.000000 8.000000 -3.000000
v -19.897778 0.000000 -57.776456
v -19.897778 0.000000 -2.223543
v -19.897778 8.000000 -57.776456
v -19.897778 8.000000 -2.223543
v -19.598076 0.000000 -58.499999
v -19.598076 0.000000 -1.500000
v -19.598076 8.000000 -58.499999
v -19.598076 8.000000 -1.500000
v -19.121320 0.000000 -59.121323
v -19.121320 0.000000 -0.878680
v -19.121320 8.000000 -59.121323
v -19.121320 8.000000 -0.878680
v -18.500000 0.000000 -59.598074
v -18.500000 0.000000 -0.401924
v -18.500000 8.000000 -59.598074
v -18.500000 8.000000 -0.401924
v -17.776457 0.000000 -59.897776
v -17.776457 0.000000 -0.102223
v -17.776457 8.000000 -59.897776
v -17.776457 8.000000 -0.102223
v -17.000000 0.000000 -60.000000
v -17.000000 0.000000 0.000000
v -17.000000 8.000000 -60.000000
v -17.000000 8.000000 0.000000
v -8.628007 0.000000 -20.629606
v -8.628007 0.000000 -9.629607
v -8.628007 8.000000 -20.629606
v -8.628007 8.000000 -9.629607
v -3.000000 0.000000 -60.000000
v -3.000000 0.000000 0.000000
v -3.000000 8.000000 -60.000000
v -3.000000 8.000000 0.000000
v -2.223543 0.000000 -59.897776
v -2.223543 0.000000 -0.102223
v -2.223543 8.000000 -59.897776
v -2.223543 8.000000 -0.102223
v -1.500000 0.000000 -59.598074
v -1.500000 0.000000 -0.401924
v -1.500000 8.000000 -59.598074
v -1.500000 8.000000 -0.401924
v -0.878680 0.000000 -59.121323
v -0.878680 0.000000 -0.878680
v -0.878680 8.000000 -59.121323
v -0.878680 8.000000 -0.878680
v -0.401924 0.000000 -58.499999
v -0.401924 0.000000 -1.500000
v -0.401924 8.000000 -58.499999
v -0.401924 8.000000 -1.500000
v -0.102223 0.000000 -57.776456
v -0.102223 0.000000 -2.223543
v -0.102223 8.000000 -57.776456
v -0.102223 8.000000 -2.223543
v 0.000000 0.000000 -56.999998
v 0.000000 0.000000 -3.000000
v 0.000000 8.000000 -56.999998
v 0.000000 8.000000 -3.000000
vt -0.800000 0.235619 0.000000
vt -0.800000 0.157080 0.000000
vt -0.800000 0.078540 0.000000
vt -0.800000 0.000000 0.000000
vt -0.800000 -0.078540 0.000000
vt -0.800000 -0.157080 0.000000
vt -0.800000 -0.235619 0.000000
vt -0.000000 -0.235619 0.000000
vt -0.000000 -0.157080 0.000000
vt -0.000000 -0.078540 0.000000
vt -0.000000 0.000000 0.000000
vt -0.000000 0.078540 0.000000
vt -0.000000 0.157080 0.000000
vt -0.000000 0.235619 0.000000
vt 0.300000 0.800000 0.000000
vt 0.300000 0.000000 0.000000
vt 1.700000 0.000000 0.000000
vt 1.700000 0.800000 0.000000
vt -2.814926 -0.714761 0.000000
vt -2.804703 -0.792406 0.000000
vt -2.774733 -0.864761 0.000000
vt -2.727058 -0.926893 0.000000
vt -2.664926 -0.974568 0.000000
vt -2.592571 -1.004538 0.000000
vt -2.514926 -1.014761 0.000000
vt -1.851965 -1.014761 0.000000
vt -1.851965 0.122439 0.000000
vt -0.751965 0.122439 0.000000
vt -0.751965 -1.014761 0.000000
vt 2.885074 -1.014761 0.000000
vt 2.962720 -1.004538 0.000000
vt 3.035074 -0.974568 0.000000
vt 3.097206 -0.926893 0.000000
vt 3.144882 -0.864761 0.000000
vt 3.174852 -0.792406 0.000000
vt 3.185074 -0.714761 0.000000
vt 3.185074 0.685239 0.000000
vt 3.174852 0.762885 0.000000
vt 3.144882 0.835239 0.000000
vt 3.097206 0.897371 0.000000
vt 3.035074 0.945047 0.000000
vt 2.962720 0.975017 0.000000
vt 2.885074 0.985239 0.000000
vt -2.514926 0.985239 0.000000
vt -2.592571 0.975017 0.000000
vt -2.664926 0.945047 0.000000
vt -2.727058 0.897371 0.000000
vt -2.774733 0.835239 0.000000
vt -2.804703 0.762885 0.000000
vt -2.814926 0.685239 0.000000
vt -0.800000 0.235619 0.000000
vt -0.800000 0.157080 0.000000
vt -0.800000 0.078540 0.000000
vt -0.800000 0.000000 0.000000
vt -0.800000 -0.078540 0.000000
vt -0.800000 -0.157080 0.000000
vt -0.800000 -0.235619 0.000000
vt -0.000000 -0.235619 0.000000
vt -0.000000 -0.157080 0.000000
vt -0.000000 -0.078540 0.000000
vt -0.000000 0.000000 0.000000
vt -0.000000 0.078540 0.000000
vt -0.000000 0.157080 0.000000
vt -0.000000 0.235619 0.000000
vt 1.700000 0.000000 0.000000
vt 1.700000 0.800000 0.000000
vt 0.300000 0.800000 0.000000
vt 0.300000 0.000000 0.000000
vt -0.800000 0.235619 0.000000
vt -0.800000 0.157080 0.000000
vt -0.800000 0.078540 0.000000
vt -0.800000 0.000000 0.000000
vt -0.800000 -0.078540 0.000000
vt -0.800000 -0.157080 0.000000
vt -0.800000 -0.235619 0.000000
vt -0.000000 -0.235619 0.000000
vt -0.000000 -0.157080 0.000000
vt -0.000000 -0.078540 0.000000
vt -0.000000 0.000000 0.000000
vt -0.000000 0.078540 0.000000
vt -0.000000 0.157080 0.000000
vt -0.000000 0.235619 0.000000
vt -0.800000 0.235619 0.000000
vt -0.800000 0.157080 0.000000
vt -0.800000 0.078540 0.000000
vt -0.800000 0.000000 0.000000
vt -0.800000 -0.078540 0.000000
vt -0.800000 -0.157080 0.000000
vt -0.800000 -0.235619 0.000000
vt -0.000000 -0.235619 0.000000
vt -0.000000 -0.157080 0.000000
vt -0.000000 -0.078540 0.000000
vt -0.000000 0.000000 0.000000
vt -0.000000 0.078540 0.000000
vt -0.000000 0.157080 0.000000
vt -0.000000 0.235619 0.000000
vt 0.662961 0.000000 0.000000
vt 0.662961 0.800000 0.000000
vt 0.000000 0.800000 0.000000
vt 0.000000 0.000000 0.000000
vt 0.000000 0.000000 0.000000
vt 1.137199 0.000000 0.000000
vt 1.137199 0.800000 0.000000
vt 0.000000 0.800000 0.000000
vt 0.000000 0.000000 0.000000
vt 1.100000 0.000000 0.000000
vt 1.100000 0.800000 0.000000
vt 0.000000 0.800000 0.000000
vt 0.000000 0.000000 0.000000
vt 1.137199 0.000000 0.000000
vt 1.137199 0.800000 0.000000
vt 0.000000 0.800000 0.000000
vt 0.300000 0.800000 0.000000
vt 0.300000 0.000000 0.000000
vt 3.937039 0.000000 0.000000
vt 3.937039 0.800000 0.000000
vt 5.700000 0.000000 0.000000
vt 5.700000 0.800000 0.000000
vt 0.300000 0.800000 0.000000
vt 0.300000 0.000000 0.000000
vt 2.514926 -1.014761 0.000000
vt 2.592571 -1.004538 0.000000
vt 2.664926 -0.974568 0.000000
vt 2.727058 -0.926893 0.000000
vt 2.774733 -0.864761 0.000000
vt 2.804703 -0.792406 0.000000
vt 2.814926 -0.714761 0.000000
vt 2.814926 0.685239 0.000000
vt 2.804703 0.762885 0.000000
vt 2.774733 0.835239 0.000000
vt 2.727058 0.897371 0.000000
vt 2.664926 0.945047 0.000000
vt 2.592571 0.975017 0.000000
vt 2.514926 0.985239 0.000000
vt -2.885074 0.985239 0.000000
vt -2.962720 0.975017 0.000000
vt -3.035074 0.945047 0.000000
vt -3.097206 0.897371 0.000000
vt -3.144882 0.835239 0.000000
vt -3.174852 0.762885 0.000000
vt -3.185074 0.685239 0.000000
vt -3.185074 -0.714761 0.000000
vt -3.174852 -0.792406 0.000000
vt -3.144882 -0.864761 0.000000
vt -3.097206 -0.926893 0.000000
vt -3.035074 -0.974568 0.000000
vt -2.962720 -1.004538 0.000000
vt -2.885074 -1.014761 0.000000
vt 0.751965 -1.014761 0.000000
vt 0.751965 0.122439 0.000000
vt 1.851965 0.122439 0.000000
vt 1.851965 -1.014761 0.000000
vn 0.000000 0.000000 0.100000
vn -0.025882 0.000000 0.096593
vn -0.050000 0.000000 0.086603
vn -0.070711 0.000000 0.070711
vn -0.086603 0.000000 0.050000
vn -0.096593 0.000000 0.025882
vn -0.100000 0.000000 0.000000
vn -0.100000 0.000000 0.000000
vn -0.096593 0.000000 0.025882
vn -0.086603 0.000000 0.050000
vn -0.070711 0.000000 0.070711
vn -0.050000 0.000000 0.086603
vn -0.025882 0.000000 0.096593
vn 0.000000 0.000000 0.100000
vn 0.000000 0.000000 0.100000
vn 0.000000 0.000000 0.100000
vn 0.000000 0.000000 0.100000
vn 0.000000 0.000000 0.100000
vn 0.000000 -0.100000 0.000000
vn 0.000000 -0.100000 0.000000
vn 0.000000 -0.100000 0.000000
vn 0.000000 -0.100000 0.000000
vn 0.000000 -0.100000 0.000000
vn 0.000000 -0.100000 0.000000
vn 0.000000 -0.100000 0.000000
vn 0.000000 -0.100000 0.000000
vn 0.000000 -0.100000 0.000000
vn 0.000000 -0.100000 0.000000
vn 0.000000 -0.100000 0.000000
vn 0.000000 -0.100000 0.000000
vn 0.000000 -0.100000 0.000000
vn 0.000000 -0.100000 0.000000
vn 0.000000 -0.100000 0.000000
vn 0.000000 -0.100000 0.000000
vn 0.000000 -0.100000 0.000000
vn 0.000000 -0.100000 0.000000
vn 0.000000 -0.100000 0.000000
vn 0.000000 -0.100000 0.000000
vn 0.000000 -0.100000 0.000000
vn 0.000000 -0.100000 0.000000
vn 0.000000 -0.100000 0.000000
vn 0.000000 -0.100000 0.000000
vn 0.000000 -0.100000 0.000000
vn 0.000000 -0.100000 0.000000
vn 0.000000 -0.100000 0.000000
vn 0.000000 -0.100000 0.000000
vn 0.000000 -0.100000 0.000000
vn 0.000000 -0.100000 0.000000
vn 0.000000 -0.100000 0.000000
vn 0.000000 -0.100000 0.000000
vn -0.100000 0.000000 0.000000
vn -0.096593 0.000000 -0.025882
vn -0.086603 0.000000 -0.050000
vn -0.070711 0.000000 -0.070711
vn -0.050000 0.000000 -0.086603
vn -0.025882 0.000000 -0.096593
vn 0.000000 0.000000 -0.100000
vn 0.000000 0.000000 -0.100000
vn -0.025882 0.000000 -0.096593
vn -0.050000 0.000000 -0.086603
vn -0.070711 0.000000 -0.070711
vn -0.086603 0.000000 -0.050000
vn -0.096593 0.000000 -0.025882
vn -0.100000 0.000000 0.000000
vn 0.000000 0.000000 -0.100000
vn 0.000000 0.000000 -0.100000
vn 0.000000 0.000000 -0.100000
vn 0.000000 0.000000 -0.100000
vn 0.000000 0.000000 -0.100000
vn 0.025882 0.000000 -0.096593
vn 0.050000 0.000000 -0.086603
vn 0.070711 0.000000 -0.070711
vn 0.086603 0.000000 -0.050000
vn 0.096593 0.000000 -0.025882
vn 0.100000 0.000000 0.000000
vn 0.100000 0.000000 0.000000
vn 0.096593 0.000000 -0.025882
vn 0.086603 0.000000 -0.050000
vn 0.070711 0.000000 -0.070711
vn 0.050000 0.000000 -0.086603
vn 0.025882 0.000000 -0.096593
vn 0.000000 0.000000 -0.100000
vn 0.100000 0.000000 0.000000
vn 0.096593 0.000000 0.025882
vn 0.086603 0.000000 0.050000
vn 0.070711 0.000000 0.070711
vn 0.050000 0.000000 0.086603
vn 0.025882 0.000000 0.096593
vn 0.000000 0.000000 0.100000
vn 0.000000 0.000000 0.100000
vn 0.025882 0.000000 0.096593
vn 0.050000 0.000000 0.086603
vn 0.070711 0.000000 0.070711
vn 0.086603 0.000000 0.050000
vn 0.096593 0.000000 0.025882
vn 0.100000 0.000000 0.000000
vn -0.100000 0.000000 0.000000
vn -0.100000 0.000000 0.000000
vn -0.100000 0.000000 0.000000
vn -0.100000 0.000000 0.000000
vn 0.000000 0.000000 -0.100000
vn 0.000000 0.000000 -0.100000
vn 0.000000 0.000000 -0.100000
vn 0.000000 0.000000 -0.100000
vn -0.100000 0.000000 0.000000
vn -0.100000 0.000000 0.000000
vn -0.100000 0.000000 0.000000
vn -0.100000 0.000000 0.000000
vn 0.000000 0.000000 0.100000
vn 0.000000 0.000000 0.100000
vn 0.000000 0.000000 0.100000
vn 0.000000 0.000000 0.100000
vn -0.100000 0.000000 0.000000
vn -0.100000 0.000000 0.000000
vn -0.100000 0.000000 0.000000
vn -0.100000 0.000000 0.000000
vn 0.100000 0.000000 0.000000
vn 0.100000 0.000000 0.000000
vn 0.100000 0.000000 0.000000
vn 0.100000 0.000000 0.000000
vn 0.000000 0.100000 0.000000
vn 0.000000 0.100000 0.000000
vn 0.000000 0.100000 0.000000
vn 0.000000 0.100000 0.000000
vn 0.000000 0.100000 0.000000
vn 0.000000 0.100000 0.000000
vn 0.000000 0.100000 0.000000
vn 0.000000 0.100000 0.000000
vn 0.000000 0.100000 0.000000
vn 0.000000 0.100000 0.000000
vn 0.000000 0.100000 0.000000
vn 0.000000 0.100000 0.000000
vn 0.000000 0.100000 0.000000
vn 0.000000 0.100000 0.000000
vn 0.000000 0.100000 0.000000
vn 0.000000 0.100000 0.000000
vn 0.000000 0.100000 0.000000
vn 0.000000 0.100000 0.000000
vn 0.000000 0.100000 0.000000
vn 0.000000 0.100000 0.000000
vn 0.000000 0.100000 0.000000
vn 0.000000 0.100000 0.000000
vn 0.000000 0.100000 0.000000
vn 0.000000 0.100000 0.000000
vn 0.000000 0.100000 0.000000
vn 0.000000 0.100000 0.000000
vn 0.000000 0.100000 0.000000
vn 0.000000 0.100000 0.000000
vn 0.000000 0.100000 0.000000
vn 0.000000 0.100000 0.000000
vn 0.000000 0.100000 0.000000
vn 0.000000 0.100000 0.000000
usemtl 191,191,191
f 32/1/1 28/2/2 30/14/14
f 30/14/14 28/2/2 26/13/13
f 26/13/13 28/2/2 24/3/3
f 26/13/13 24/3/3 22/12/12
f 22/12/12 24/3/3 18/11/11
f 18/11/11 24/3/3 20/4/4
f 18/11/11 20/4/4 14/10/10
f 14/10/10 20/4/4 16/5/5
f 14/10/10 16/5/5 12/6/6
f 14/10/10 12/6/6 10/9/9
f 10/9/9 12/6/6 8/7/7
f 10/9/9 8/7/7 4/8/8
f 30/16/16 38/17/17 32/15/15
f 32/15/15 38/17/17 40/18/18
f 26/20/20 3/26/26 30/19/19
f 30/19/19 3/26/26 34/27/27
f 30/19/19 34/27/27 38/50/50
f 38/50/50 34/27/27 33/28/28
f 38/50/50 33/28/28 62/44/44
f 62/44/44 33/28/28 61/43/43
f 61/43/43 33/28/28 37/37/37
f 61/43/43 37/37/37 41/38/38
f 26/20/20 22/21/21 3/26/26
f 3/26/26 22/21/21 18/22/22
f 3/26/26 18/22/22 4/25/25
f 4/25/25 18/22/22 14/23/23
f 4/25/25 14/23/23 10/24/24
f 37/37/37 33/28/28 29/36/36
f 29/36/36 33/28/28 2/29/29
f 29/36/36 2/29/29 1/30/30
f 9/31/31 13/32/32 1/30/30
f 1/30/30 13/32/32 17/33/33
f 1/30/30 17/33/33 21/34/34
f 21/34/34 25/35/35 1/30/30
f 1/30/30 25/35/35 29/36/36
f 41/38/38 45/39/39 61/43/43
f 61/43/43 45/39/39 49/40/40
f 61/43/43 49/40/40 53/41/41
f 53/41/41 57/42/42 61/43/43
f 58/45/45 54/46/46 62/44/44
f 62/44/44 54/46/46 50/47/47
f 62/44/44 50/47/47 46/48/48
f 46/48/48 42/49/49 62/44/44
f 62/44/44 42/49/49 38/50/50
f 5/51/51 11/52/52 1/64/64
f 1/64/64 11/52/52 9/63/63
f 9/63/63 11/52/52 15/53/53
f 9/63/63 15/53/53 13/62/62
f 13/62/62 15/53/53 17/61/61
f 17/61/61 15/53/53 19/54/54
f 17/61/61 19/54/54 21/60/60
f 21/60/60 19/54/54 23/55/55
f 21/60/60 23/55/55 27/56/56
f 21/60/60 27/56/56 25/59/59
f 25/59/59 27/56/56 31/57/57
f 25/59/59 31/57/57 29/58/58
f 31/66/66 39/67/67 29/65/65
f 29/65/65 39/67/67 37/68/68
f 39/69/69 43/70/70 37/82/82
f 37/82/82 43/70/70 41/81/81
f 41/81/81 43/70/70 47/71/71
f 41/81/81 47/71/71 45/80/80
f 45/80/80 47/71/71 49/79/79
f 49/79/79 47/71/71 51/72/72
f 49/79/79 51/72/72 53/78/78
f 53/78/78 51/72/72 55/73/73
f 53/78/78 55/73/73 59/74/74
f 53/78/78 59/74/74 57/77/77
f 57/77/77 59/74/74 63/75/75
f 57/77/77 63/75/75 61/76/76
f 64/83/83 60/84/84 62/96/96
f 62/96/96 60/84/84 58/95/95
f 58/95/95 60/84/84 56/85/85
f 58/95/95 56/85/85 54/94/94
f 54/94/94 56/85/85 50/93/93
f 50/93/93 56/85/85 52/86/86
f 50/93/93 52/86/86 46/92/92
f 46/92/92 52/86/86 48/87/87
f 46/92/92 48/87/87 44/88/88
f 46/92/92 44/88/88 42/91/91
f 42/91/91 44/88/88 40/89/89
f 42/91/91 40/89/89 38/90/90
f 8/98/98 7/99/99 4/97/97
f 4/97/97 7/99/99 3/100/100
f 34/101/101 3/102/102 36/104/104
f 36/104/104 3/102/102 7/103/103
f 33/105/105 34/106/106 35/108/108
f 35/108/108 34/106/106 36/107/107
f 2/109/109 33/110/110 6/112/112
f 6/112/112 33/110/110 35/111/111
f 1/114/114 2/115/115 5/113/113
f 5/113/113 2/115/115 6/116/116
f 63/118/118 64/119/119 61/117/117
f 61/117/117 64/119/119 62/120/120
f 12/122/122 16/123/123 8/121/121
f 8/121/121 16/123/123 20/124/124
f 8/121/121 20/124/124 7/152/152
f 7/152/152 20/124/124 24/125/125
f 7/152/152 24/125/125 28/126/126
f 28/126/126 32/127/127 7/152/152
f 7/152/152 32/127/127 36/151/151
f 36/151/151 32/127/127 40/128/128
f 36/151/151 40/128/128 35/150/150
f 35/150/150 40/128/128 64/134/134
f 35/150/150 64/134/134 63/135/135
f 40/128/128 44/129/129 64/134/134
f 64/134/134 44/129/129 48/130/130
f 64/134/134 48/130/130 52/131/131
f 52/131/131 56/132/132 64/134/134
f 64/134/134 56/132/132 60/133/133
f 59/136/136 55/137/137 63/135/135
f 63/135/135 55/137/137 51/138/138
f 63/135/135 51/138/138 47/139/139
f 47/139/139 43/140/140 63/135/135
f 63/135/135 43/140/140 39/141/141
f 63/135/135 39/141/141 35/150/150
f 35/150/150 39/141/141 31/142/142
f 35/150/150 31/142/142 6/149/149
f 6/149/149 31/142/142 5/148/148
f 5/148/148 31/142/142 27/143/143
f 5/148/148 27/143/143 23/144/144
f 23/144/144 19/145/145 5/148/148
f 5/148/148 19/145/145 15/146/146
f 5/148/148 15/146/146 11/147/147

# 64 vertices
# 152 texture params
# 152 normals
# 124 facets

# 1 groups
